<?xml version="1.0" standalone="no"?><!DOCTYPE svg PUBLIC "-//W3C//DTD SVG 1.1//EN" "http://www.w3.org/Graphics/SVG/1.1/DTD/svg11.dtd"><svg t="1709779595239" class="icon" viewBox="0 0 1024 1024" version="1.1" xmlns="http://www.w3.org/2000/svg" p-id="3630" width="128" height="128" xmlns:xlink="http://www.w3.org/1999/xlink"><path d="M112.992 498.272c-44.288-77.216-53.28-149.504-21.792-204 42.144-73.056 147.968-98.56 281.76-74.208a13.76 13.76 0 1 1-4.992 26.976l0.096 0.032c-123.744-22.528-218.08 0.224-253.088 60.928-25.824 44.672-18.048 107.04 21.856 176.64a13.728 13.728 0 0 1-23.744 13.696l-0.032-0.064z m636.576-258.944c78.304 1.024 134.656 25.44 160.032 69.376 34.976 60.544 7.68 153.376-73.312 249.056a13.728 13.728 0 1 0 20.864 17.792l0.032-0.032c87.648-103.52 118.24-207.616 76.16-280.544-30.976-53.632-96.416-81.92-183.424-83.072l-0.928-0.032a13.728 13.728 0 1 0 0 27.456h0.576-0.032z m-79.104 650.176a13.76 13.76 0 0 0-18.816 4.64l-0.032 0.064c-39.84 66.272-88.736 102.368-139.104 102.368-70.048 0-136.864-70.272-179.2-188.512a13.76 13.76 0 1 0-25.824 9.344l-0.032-0.096C353.248 945.216 428.192 1024 512.416 1024c61.44 0 118.304-41.888 162.688-115.616a13.696 13.696 0 0 0-4.576-18.816l-0.064-0.032z m313.856-110.656a65.696 65.696 0 0 1-104.128 53.216l0.192 0.128c-104.736 61.664-304.896 30.304-493.216-78.496-80.224-46.304-150.496-102.048-204.576-161.504a13.728 13.728 0 1 1 20.256-18.464l0.032 0.032c52.128 57.312 120.192 111.328 197.984 156.192 177.792 102.656 364.928 133.12 460.672 81.312a65.696 65.696 0 1 1 122.784-32.544v0.16z m-813.312 0v0.128a65.696 65.696 0 1 1-97.792-57.344l0.32-0.16c-9.952-122.752 119.04-287.328 314.016-399.872 80.992-46.752 165.28-79.968 244.512-96.896a13.728 13.728 0 0 1 5.856 26.752l-0.096 0.032c-76.384 16.384-157.984 48.512-236.576 93.856-183.648 106.016-304.992 258.848-300.704 368.096 1.632-0.128 3.2-0.256 4.832-0.256 36.256 0 65.696 29.44 65.664 65.664z m275.808-713.152a65.728 65.728 0 0 1 131.328-0.096v0.128c0 0.992-0.096 1.92-0.128 2.848 108.768 56.192 184.32 247.904 184.32 469.472 0 91.104-12.704 178.528-36.448 254.304a13.76 13.76 0 1 1-26.144-8.288l-0.032 0.096c22.88-73.056 35.2-157.728 35.2-246.112 0-208.64-69.376-388.064-164.128-442.144a65.6 65.6 0 0 1-123.968-30.08v-0.096z m55.616 425.856a47.52 47.52 0 1 0 20.352 92.864l-0.32 0.064a47.52 47.52 0 1 0-20.352-92.864l0.32-0.064z" p-id="3631" fill="#13227a"></path></svg>